<?xml version="1.0" encoding="UTF-8"?>
<svg width="24px" height="24px" viewBox="0 0 24 24" version="1.1" xmlns="http://www.w3.org/2000/svg" xmlns:xlink="http://www.w3.org/1999/xlink">
    <title>docwatch_quill_icon</title>
    <g id="Page-1" stroke="none" stroke-width="1" fill="none" fill-rule="evenodd">
        <g id="docwatch_quill_icon" fill-rule="nonzero">
            <rect id="Rectangle" fill="#273648" x="15" y="0" width="1" height="1"></rect>
            <rect id="Rectangle" fill="#273749" x="16" y="0" width="1" height="1"></rect>
            <rect id="Rectangle" fill="#29374A" x="18" y="0" width="1" height="1"></rect>
            <rect id="Rectangle" fill="#29374A" x="19" y="0" width="1" height="1"></rect>
            <rect id="Rectangle" fill="#28364B" x="20" y="0" width="1" height="1"></rect>
            <rect id="Rectangle" fill="#27384B" x="22" y="0" width="1" height="1"></rect>
            <rect id="Rectangle" fill="#283749" x="12" y="1" width="1" height="1"></rect>
            <rect id="Rectangle" fill="#29374A" x="14" y="1" width="1" height="1"></rect>
            <rect id="Rectangle" fill="#FEC029" x="15" y="1" width="1" height="1"></rect>
            <rect id="Rectangle" fill="#FDBF2A" x="16" y="1" width="1" height="1"></rect>
            <rect id="Rectangle" fill="#FDBE2A" x="18" y="1" width="1" height="1"></rect>
            <rect id="Rectangle" fill="#FEBF2A" x="19" y="1" width="1" height="1"></rect>
            <rect id="Rectangle" fill="#29374A" x="20" y="1" width="1" height="1"></rect>
            <rect id="Rectangle" fill="#293749" x="22" y="1" width="1" height="1"></rect>
            <rect id="Rectangle" fill="#29384A" x="23" y="1" width="1" height="1"></rect>
            <rect id="Rectangle" fill="#F3C128" x="12" y="2" width="1" height="1"></rect>
            <rect id="Rectangle" fill="#F4C22A" x="14" y="2" width="1" height="1"></rect>
            <rect id="Rectangle" fill="#FDBF2A" x="15" y="2" width="1" height="1"></rect>
            <rect id="Rectangle" fill="#FEBF28" x="16" y="2" width="1" height="1"></rect>
            <rect id="Rectangle" fill="#FDBD2A" x="18" y="2" width="1" height="1"></rect>
            <rect id="Rectangle" fill="#E46E13" x="19" y="2" width="1" height="1"></rect>
            <rect id="Rectangle" fill="#F38D13" x="20" y="2" width="1" height="1"></rect>
            <rect id="Rectangle" fill="#F68E11" x="22" y="2" width="1" height="1"></rect>
            <rect id="Rectangle" fill="#28374A" x="23" y="2" width="1" height="1"></rect>
            <rect id="Rectangle" fill="#2A3A4C" x="10" y="3" width="1" height="1"></rect>
            <rect id="Rectangle" fill="#29374B" x="11" y="3" width="1" height="1"></rect>
            <rect id="Rectangle" fill="#FDBE29" x="12" y="3" width="1" height="1"></rect>
            <rect id="Rectangle" fill="#FDBF2A" x="14" y="3" width="1" height="1"></rect>
            <rect id="Rectangle" fill="#FDBF2A" x="15" y="3" width="1" height="1"></rect>
            <rect id="Rectangle" fill="#FEBE29" x="16" y="3" width="1" height="1"></rect>
            <rect id="Rectangle" fill="#FDBE2A" x="18" y="3" width="1" height="1"></rect>
            <rect id="Rectangle" fill="#E98319" x="19" y="3" width="1" height="1"></rect>
            <rect id="Rectangle" fill="#EA851A" x="20" y="3" width="1" height="1"></rect>
            <rect id="Rectangle" fill="#EA821D" x="22" y="3" width="1" height="1"></rect>
            <rect id="Rectangle" fill="#293849" x="23" y="3" width="1" height="1"></rect>
            <rect id="Rectangle" fill="#29374A" x="8" y="4" width="1" height="1"></rect>
            <rect id="Rectangle" fill="#FCBE28" x="11" y="4" width="1" height="1"></rect>
            <rect id="Rectangle" fill="#FCBE28" x="10" y="4" width="1" height="1"></rect>
            <rect id="Rectangle" fill="#FDBE29" x="12" y="4" width="1" height="1"></rect>
            <rect id="Rectangle" fill="#E98419" x="14" y="4" width="1" height="1"></rect>
            <rect id="Rectangle" fill="#FEBF29" x="15" y="4" width="1" height="1"></rect>
            <rect id="Rectangle" fill="#FDC028" x="16" y="4" width="1" height="1"></rect>
            <rect id="Rectangle" fill="#E9841A" x="18" y="4" width="1" height="1"></rect>
            <rect id="Rectangle" fill="#FCBF29" x="19" y="4" width="1" height="1"></rect>
            <rect id="Rectangle" fill="#FCBF29" x="20" y="4" width="1" height="1"></rect>
            <rect id="Rectangle" fill="#E9831B" x="22" y="4" width="1" height="1"></rect>
            <rect id="Rectangle" fill="#293949" x="23" y="4" width="1" height="1"></rect>
            <rect id="Rectangle" fill="#293649" x="7" y="5" width="1" height="1"></rect>
            <rect id="Rectangle" fill="#FEBF29" x="8" y="5" width="1" height="1"></rect>
            <rect id="Rectangle" fill="#FDBF29" x="10" y="5" width="1" height="1"></rect>
            <rect id="Rectangle" fill="#FDBE2A" x="11" y="5" width="1" height="1"></rect>
            <rect id="Rectangle" fill="#FEBF28" x="12" y="5" width="1" height="1"></rect>
            <rect id="Rectangle" fill="#E98419" x="14" y="5" width="1" height="1"></rect>
            <rect id="Rectangle" fill="#EA8518" x="15" y="5" width="1" height="1"></rect>
            <rect id="Rectangle" fill="#EA851A" x="16" y="5" width="1" height="1"></rect>
            <rect id="Rectangle" fill="#FCBF29" x="18" y="5" width="1" height="1"></rect>
            <rect id="Rectangle" fill="#FCBF2A" x="19" y="5" width="1" height="1"></rect>
            <rect id="Rectangle" fill="#FCBF29" x="20" y="5" width="1" height="1"></rect>
            <rect id="Rectangle" fill="#EC8418" x="22" y="5" width="1" height="1"></rect>
            <rect id="Rectangle" fill="#2A3748" x="23" y="5" width="1" height="1"></rect>
            <rect id="Rectangle" fill="#29374A" x="7" y="6" width="1" height="1"></rect>
            <rect id="Rectangle" fill="#FEBF29" x="8" y="6" width="1" height="1"></rect>
            <rect id="Rectangle" fill="#E9841A" x="10" y="6" width="1" height="1"></rect>
            <rect id="Rectangle" fill="#EB8819" x="11" y="6" width="1" height="1"></rect>
            <rect id="Rectangle" fill="#FEC028" x="12" y="6" width="1" height="1"></rect>
            <rect id="Rectangle" fill="#E98419" x="14" y="6" width="1" height="1"></rect>
            <rect id="Rectangle" fill="#F79315" x="15" y="6" width="1" height="1"></rect>
            <rect id="Rectangle" fill="#F69315" x="16" y="6" width="1" height="1"></rect>
            <rect id="Rectangle" fill="#F89718" x="18" y="6" width="1" height="1"></rect>
            <rect id="Rectangle" fill="#FCBE28" x="19" y="6" width="1" height="1"></rect>
            <rect id="Rectangle" fill="#FCBF29" x="20" y="6" width="1" height="1"></rect>
            <rect id="Rectangle" fill="#EC8118" x="22" y="6" width="1" height="1"></rect>
            <rect id="Rectangle" fill="#293849" x="23" y="6" width="1" height="1"></rect>
            <rect id="Rectangle" fill="#293648" x="7" y="7" width="1" height="1"></rect>
            <rect id="Rectangle" fill="#FDBF28" x="8" y="7" width="1" height="1"></rect>
            <rect id="Rectangle" fill="#E88019" x="10" y="7" width="1" height="1"></rect>
            <rect id="Rectangle" fill="#EA831A" x="11" y="7" width="1" height="1"></rect>
            <rect id="Rectangle" fill="#FCBE29" x="12" y="7" width="1" height="1"></rect>
            <rect id="Rectangle" fill="#E98519" x="14" y="7" width="1" height="1"></rect>
            <rect id="Rectangle" fill="#F69414" x="15" y="7" width="1" height="1"></rect>
            <rect id="Rectangle" fill="#F79414" x="16" y="7" width="1" height="1"></rect>
            <rect id="Rectangle" fill="#F69416" x="18" y="7" width="1" height="1"></rect>
            <rect id="Rectangle" fill="#FDBE27" x="19" y="7" width="1" height="1"></rect>
            <rect id="Rectangle" fill="#E9851C" x="20" y="7" width="1" height="1"></rect>
            <rect id="Rectangle" fill="#E88318" x="22" y="7" width="1" height="1"></rect>
            <rect id="Rectangle" fill="#2A3749" x="23" y="7" width="1" height="1"></rect>
            <rect id="Rectangle" fill="#29374A" x="6" y="8" width="1" height="1"></rect>
            <rect id="Rectangle" fill="#FCC129" x="7" y="8" width="1" height="1"></rect>
            <rect id="Rectangle" fill="#FFC029" x="8" y="8" width="1" height="1"></rect>
            <rect id="Rectangle" fill="#E97F19" x="10" y="8" width="1" height="1"></rect>
            <rect id="Rectangle" fill="#EA8419" x="11" y="8" width="1" height="1"></rect>
            <rect id="Rectangle" fill="#EB8319" x="12" y="8" width="1" height="1"></rect>
            <rect id="Rectangle" fill="#FEBE29" x="14" y="8" width="1" height="1"></rect>
            <rect id="Rectangle" fill="#FEC029" x="15" y="8" width="1" height="1"></rect>
            <rect id="Rectangle" fill="#FDBE28" x="16" y="8" width="1" height="1"></rect>
            <rect id="Rectangle" fill="#FEBF2A" x="18" y="8" width="1" height="1"></rect>
            <rect id="Rectangle" fill="#FEBE29" x="19" y="8" width="1" height="1"></rect>
            <rect id="Rectangle" fill="#2A374A" x="20" y="8" width="1" height="1"></rect>
            <rect id="Rectangle" fill="#29364A" x="22" y="8" width="1" height="1"></rect>
            <rect id="Rectangle" fill="#27384B" x="21" y="0" width="1" height="1"></rect>
            <rect id="Rectangle" fill="#293749" x="21" y="1" width="1" height="1"></rect>
            <rect id="Rectangle" fill="#F68E11" x="21" y="2" width="1" height="1"></rect>
            <rect id="Rectangle" fill="#EA821D" x="21" y="3" width="1" height="1"></rect>
            <rect id="Rectangle" fill="#E9831B" x="21" y="4" width="1" height="1"></rect>
            <rect id="Rectangle" fill="#EC8418" x="21" y="5" width="1" height="1"></rect>
            <rect id="Rectangle" fill="#EC8118" x="21" y="6" width="1" height="1"></rect>
            <rect id="Rectangle" fill="#E88318" x="21" y="7" width="1" height="1"></rect>
            <rect id="Rectangle" fill="#29364A" x="21" y="8" width="1" height="1"></rect>
            <rect id="Rectangle" fill="#293749" x="6" y="9" width="1" height="1"></rect>
            <rect id="Rectangle" fill="#FDBF29" x="7" y="9" width="1" height="1"></rect>
            <rect id="Rectangle" fill="#FDBE28" x="8" y="9" width="1" height="1"></rect>
            <rect id="Rectangle" fill="#E88018" x="10" y="9" width="1" height="1"></rect>
            <rect id="Rectangle" fill="#EB8518" x="11" y="9" width="1" height="1"></rect>
            <rect id="Rectangle" fill="#F79514" x="12" y="9" width="1" height="1"></rect>
            <rect id="Rectangle" fill="#F69515" x="14" y="9" width="1" height="1"></rect>
            <rect id="Rectangle" fill="#F69415" x="15" y="9" width="1" height="1"></rect>
            <rect id="Rectangle" fill="#F59415" x="16" y="9" width="1" height="1"></rect>
            <rect id="Rectangle" fill="#FDBF28" x="18" y="9" width="1" height="1"></rect>
            <rect id="Rectangle" fill="#293649" x="19" y="9" width="1" height="1"></rect>
            <rect id="Rectangle" fill="#303D4B" x="4" y="10" width="1" height="1"></rect>
            <rect id="Rectangle" fill="#FDBE29" x="6" y="10" width="1" height="1"></rect>
            <rect id="Rectangle" fill="#FFBE29" x="7" y="10" width="1" height="1"></rect>
            <rect id="Rectangle" fill="#EA8419" x="8" y="10" width="1" height="1"></rect>
            <rect id="Rectangle" fill="#FEC82A" x="10" y="10" width="1" height="1"></rect>
            <rect id="Rectangle" fill="#FEBE29" x="11" y="10" width="1" height="1"></rect>
            <rect id="Rectangle" fill="#FEBD29" x="12" y="10" width="1" height="1"></rect>
            <rect id="Rectangle" fill="#FDBF28" x="14" y="10" width="1" height="1"></rect>
            <rect id="Rectangle" fill="#FDBF28" x="15" y="10" width="1" height="1"></rect>
            <rect id="Rectangle" fill="#FDBF29" x="16" y="10" width="1" height="1"></rect>
            <rect id="Rectangle" fill="#FCBF27" x="18" y="10" width="1" height="1"></rect>
            <rect id="Rectangle" fill="#293849" x="19" y="10" width="1" height="1"></rect>
            <rect id="Rectangle" fill="#303E48" x="4" y="11" width="1" height="1"></rect>
            <rect id="Rectangle" fill="#FEBF29" x="6" y="11" width="1" height="1"></rect>
            <rect id="Rectangle" fill="#FDBF2A" x="7" y="11" width="1" height="1"></rect>
            <rect id="Rectangle" fill="#EB8419" x="8" y="11" width="1" height="1"></rect>
            <rect id="Rectangle" fill="#FFC528" x="10" y="11" width="1" height="1"></rect>
            <rect id="Rectangle" fill="#FEBE2A" x="11" y="11" width="1" height="1"></rect>
            <rect id="Rectangle" fill="#FCBE28" x="12" y="11" width="1" height="1"></rect>
            <rect id="Rectangle" fill="#FEC029" x="14" y="11" width="1" height="1"></rect>
            <rect id="Rectangle" fill="#FDBF29" x="15" y="11" width="1" height="1"></rect>
            <rect id="Rectangle" fill="#FDBE2A" x="16" y="11" width="1" height="1"></rect>
            <rect id="Rectangle" fill="#FDBD2B" x="18" y="11" width="1" height="1"></rect>
            <rect id="Rectangle" fill="#283749" x="19" y="11" width="1" height="1"></rect>
            <rect id="Rectangle" fill="#333D44" x="4" y="12" width="1" height="1"></rect>
            <rect id="Rectangle" fill="#FDBE29" x="6" y="12" width="1" height="1"></rect>
            <rect id="Rectangle" fill="#EA8417" x="7" y="12" width="1" height="1"></rect>
            <rect id="Rectangle" fill="#EA8419" x="8" y="12" width="1" height="1"></rect>
            <rect id="Rectangle" fill="#F79216" x="10" y="12" width="1" height="1"></rect>
            <rect id="Rectangle" fill="#F69515" x="11" y="12" width="1" height="1"></rect>
            <rect id="Rectangle" fill="#F69514" x="12" y="12" width="1" height="1"></rect>
            <rect id="Rectangle" fill="#FDBD29" x="14" y="12" width="1" height="1"></rect>
            <rect id="Rectangle" fill="#FCBF29" x="15" y="12" width="1" height="1"></rect>
            <rect id="Rectangle" fill="#FBBF2F" x="16" y="12" width="1" height="1"></rect>
            <rect id="Rectangle" fill="#2A374A" x="18" y="12" width="1" height="1"></rect>
            <rect id="Rectangle" fill="#29374A" x="17" y="0" width="1" height="1"></rect>
            <rect id="Rectangle" fill="#FDBE2A" x="17" y="1" width="1" height="1"></rect>
            <rect id="Rectangle" fill="#FDBD2A" x="17" y="2" width="1" height="1"></rect>
            <rect id="Rectangle" fill="#FDBE2A" x="17" y="3" width="1" height="1"></rect>
            <rect id="Rectangle" fill="#E9841A" x="17" y="4" width="1" height="1"></rect>
            <rect id="Rectangle" fill="#FCBF29" x="17" y="5" width="1" height="1"></rect>
            <rect id="Rectangle" fill="#F89718" x="17" y="6" width="1" height="1"></rect>
            <rect id="Rectangle" fill="#F69416" x="17" y="7" width="1" height="1"></rect>
            <rect id="Rectangle" fill="#FEBF2A" x="17" y="8" width="1" height="1"></rect>
            <rect id="Rectangle" fill="#FDBF28" x="17" y="9" width="1" height="1"></rect>
            <rect id="Rectangle" fill="#FCBF27" x="17" y="10" width="1" height="1"></rect>
            <rect id="Rectangle" fill="#FDBD2B" x="17" y="11" width="1" height="1"></rect>
            <rect id="Rectangle" fill="#2A374A" x="17" y="12" width="1" height="1"></rect>
            <rect id="Rectangle" fill="#293549" x="3" y="13" width="1" height="1"></rect>
            <rect id="Rectangle" fill="#313C4A" x="4" y="13" width="1" height="1"></rect>
            <rect id="Rectangle" fill="#FEC029" x="6" y="13" width="1" height="1"></rect>
            <rect id="Rectangle" fill="#EB8318" x="7" y="13" width="1" height="1"></rect>
            <rect id="Rectangle" fill="#FDBE28" x="8" y="13" width="1" height="1"></rect>
            <rect id="Rectangle" fill="#FDBE29" x="10" y="13" width="1" height="1"></rect>
            <rect id="Rectangle" fill="#FEBF28" x="11" y="13" width="1" height="1"></rect>
            <rect id="Rectangle" fill="#FDBE2A" x="12" y="13" width="1" height="1"></rect>
            <rect id="Rectangle" fill="#FEC028" x="14" y="13" width="1" height="1"></rect>
            <rect id="Rectangle" fill="#273848" x="15" y="13" width="1" height="1"></rect>
            <rect id="Rectangle" fill="#2B3649" x="16" y="13" width="1" height="1"></rect>
            <rect id="Rectangle" fill="#283749" x="3" y="14" width="1" height="1"></rect>
            <rect id="Rectangle" fill="#303C46" x="4" y="14" width="1" height="1"></rect>
            <rect id="Rectangle" fill="#EB851A" x="6" y="14" width="1" height="1"></rect>
            <rect id="Rectangle" fill="#FCC029" x="7" y="14" width="1" height="1"></rect>
            <rect id="Rectangle" fill="#FDBE2A" x="8" y="14" width="1" height="1"></rect>
            <rect id="Rectangle" fill="#FEBF29" x="10" y="14" width="1" height="1"></rect>
            <rect id="Rectangle" fill="#FDBF2A" x="11" y="14" width="1" height="1"></rect>
            <rect id="Rectangle" fill="#FDBF2A" x="12" y="14" width="1" height="1"></rect>
            <rect id="Rectangle" fill="#293648" x="14" y="14" width="1" height="1"></rect>
            <rect id="Rectangle" fill="#293749" x="3" y="15" width="1" height="1"></rect>
            <rect id="Rectangle" fill="#EA841A" x="6" y="15" width="1" height="1"></rect>
            <rect id="Rectangle" fill="#FDBF28" x="7" y="15" width="1" height="1"></rect>
            <rect id="Rectangle" fill="#FCBD2A" x="8" y="15" width="1" height="1"></rect>
            <rect id="Rectangle" fill="#FBBD2F" x="10" y="15" width="1" height="1"></rect>
            <rect id="Rectangle" fill="#FDBE2C" x="11" y="15" width="1" height="1"></rect>
            <rect id="Rectangle" fill="#FEBF2C" x="12" y="15" width="1" height="1"></rect>
            <rect id="Rectangle" fill="#283648" x="14" y="15" width="1" height="1"></rect>
            <rect id="Rectangle" fill="#29374A" x="13" y="1" width="1" height="1"></rect>
            <rect id="Rectangle" fill="#F4C22A" x="13" y="2" width="1" height="1"></rect>
            <rect id="Rectangle" fill="#FDBF2A" x="13" y="3" width="1" height="1"></rect>
            <rect id="Rectangle" fill="#E98419" x="13" y="4" width="1" height="1"></rect>
            <rect id="Rectangle" fill="#E98419" x="13" y="5" width="1" height="1"></rect>
            <rect id="Rectangle" fill="#E98419" x="13" y="6" width="1" height="1"></rect>
            <rect id="Rectangle" fill="#E98519" x="13" y="7" width="1" height="1"></rect>
            <rect id="Rectangle" fill="#FEBE29" x="13" y="8" width="1" height="1"></rect>
            <rect id="Rectangle" fill="#F69515" x="13" y="9" width="1" height="1"></rect>
            <rect id="Rectangle" fill="#FDBF28" x="13" y="10" width="1" height="1"></rect>
            <rect id="Rectangle" fill="#FEC029" x="13" y="11" width="1" height="1"></rect>
            <rect id="Rectangle" fill="#FDBD29" x="13" y="12" width="1" height="1"></rect>
            <rect id="Rectangle" fill="#FEC028" x="13" y="13" width="1" height="1"></rect>
            <rect id="Rectangle" fill="#293648" x="13" y="14" width="1" height="1"></rect>
            <rect id="Rectangle" fill="#283648" x="13" y="15" width="1" height="1"></rect>
            <rect id="Rectangle" fill="#293749" x="3" y="16" width="1" height="1"></rect>
            <rect id="Rectangle" fill="#EA851A" x="6" y="16" width="1" height="1"></rect>
            <rect id="Rectangle" fill="#FEBF2A" x="7" y="16" width="1" height="1"></rect>
            <rect id="Rectangle" fill="#293749" x="8" y="16" width="1" height="1"></rect>
            <rect id="Rectangle" fill="#293849" x="10" y="16" width="1" height="1"></rect>
            <rect id="Rectangle" fill="#2A3A4C" x="9" y="3" width="1" height="1"></rect>
            <rect id="Rectangle" fill="#FCBE28" x="9" y="4" width="1" height="1"></rect>
            <rect id="Rectangle" fill="#FDBF29" x="9" y="5" width="1" height="1"></rect>
            <rect id="Rectangle" fill="#E9841A" x="9" y="6" width="1" height="1"></rect>
            <rect id="Rectangle" fill="#E88019" x="9" y="7" width="1" height="1"></rect>
            <rect id="Rectangle" fill="#E97F19" x="9" y="8" width="1" height="1"></rect>
            <rect id="Rectangle" fill="#E88018" x="9" y="9" width="1" height="1"></rect>
            <rect id="Rectangle" fill="#FEC82A" x="9" y="10" width="1" height="1"></rect>
            <rect id="Rectangle" fill="#FFC528" x="9" y="11" width="1" height="1"></rect>
            <rect id="Rectangle" fill="#F79216" x="9" y="12" width="1" height="1"></rect>
            <rect id="Rectangle" fill="#FDBE29" x="9" y="13" width="1" height="1"></rect>
            <rect id="Rectangle" fill="#FEBF29" x="9" y="14" width="1" height="1"></rect>
            <rect id="Rectangle" fill="#FBBD2F" x="9" y="15" width="1" height="1"></rect>
            <rect id="Rectangle" fill="#293849" x="9" y="16" width="1" height="1"></rect>
            <rect id="Rectangle" fill="#293549" x="11" y="16" width="1" height="1"></rect>
            <rect id="Rectangle" fill="#29364B" x="12" y="16" width="1" height="1"></rect>
            <rect id="Rectangle" fill="#293749" x="2" y="17" width="1" height="1"></rect>
            <rect id="Rectangle" fill="#273549" x="6" y="17" width="1" height="1"></rect>
            <rect id="Rectangle" fill="#29374A" x="5" y="8" width="1" height="1"></rect>
            <rect id="Rectangle" fill="#293749" x="5" y="9" width="1" height="1"></rect>
            <rect id="Rectangle" fill="#FDBE29" x="5" y="10" width="1" height="1"></rect>
            <rect id="Rectangle" fill="#FEBF29" x="5" y="11" width="1" height="1"></rect>
            <rect id="Rectangle" fill="#FDBE29" x="5" y="12" width="1" height="1"></rect>
            <rect id="Rectangle" fill="#FEC029" x="5" y="13" width="1" height="1"></rect>
            <rect id="Rectangle" fill="#EB851A" x="5" y="14" width="1" height="1"></rect>
            <rect id="Rectangle" fill="#EA841A" x="5" y="15" width="1" height="1"></rect>
            <rect id="Rectangle" fill="#EA851A" x="5" y="16" width="1" height="1"></rect>
            <rect id="Rectangle" fill="#273549" x="5" y="17" width="1" height="1"></rect>
            <rect id="Rectangle" fill="#28374A" x="7" y="17" width="1" height="1"></rect>
            <rect id="Rectangle" fill="#283649" x="2" y="18" width="1" height="1"></rect>
            <rect id="Rectangle" fill="#29364A" x="3" y="18" width="1" height="1"></rect>
            <rect id="Rectangle" fill="#29364A" x="3" y="17" width="1" height="1"></rect>
            <rect id="Rectangle" fill="#344253" x="4" y="18" width="1" height="1"></rect>
            <rect id="Rectangle" fill="#273648" x="2" y="19" width="1" height="1"></rect>
            <rect id="Rectangle" fill="#283749" x="3" y="19" width="1" height="1"></rect>
            <rect id="Rectangle" fill="#314252" x="4" y="19" width="1" height="1"></rect>
            <rect id="Rectangle" fill="#283648" x="0" y="20" width="1" height="1"></rect>
            <rect id="Rectangle" fill="#29364A" x="3" y="20" width="1" height="1"></rect>
            <rect id="Rectangle" fill="#29364A" x="2" y="20" width="1" height="1"></rect>
            <rect id="Rectangle" fill="#283749" x="0" y="21" width="1" height="1"></rect>
            <rect id="Rectangle" fill="#293749" x="2" y="21" width="1" height="1"></rect>
            <rect id="Rectangle" fill="#293749" x="1" y="17" width="1" height="1"></rect>
            <rect id="Rectangle" fill="#283649" x="1" y="18" width="1" height="1"></rect>
            <rect id="Rectangle" fill="#273648" x="1" y="19" width="1" height="1"></rect>
            <rect id="Rectangle" fill="#29364A" x="1" y="20" width="1" height="1"></rect>
            <rect id="Rectangle" fill="#293749" x="1" y="21" width="1" height="1"></rect>
            <rect id="Rectangle" fill="#293748" x="0" y="22" width="1" height="1"></rect>
            <rect id="Rectangle" fill="#000006" x="0" y="23" width="1" height="1"></rect>
            <rect id="Rectangle" fill="#EA851A" x="4" y="16" width="1" height="1"></rect>
            <rect id="Rectangle" fill="#EA851A" x="4" y="15" width="1" height="1"></rect>
            <rect id="Rectangle" fill="#29364A" x="4" y="17" width="1" height="1"></rect>
        </g>
    </g>
</svg>